<?xml version="1.0" standalone="no"?>
<!DOCTYPE svg PUBLIC "-//W3C//DTD SVG 20010904//EN"
 "http://www.w3.org/TR/2001/REC-SVG-20010904/DTD/svg10.dtd">
<svg version="1.0" xmlns="http://www.w3.org/2000/svg"
 width="128.000000pt" height="128.000000pt" viewBox="0 0 128.000000 128.000000"
 preserveAspectRatio="xMidYMid meet">
<metadata>
Created by potrace 1.14, written by Peter Selinger 2001-2017
</metadata>
<g transform="translate(0.000000,128.000000) scale(0.100000,-0.100000)"
fill="#000000" stroke="none">
<path d="M400 755 c0 -256 0 -468 -1 -472 -1 -5 -10 -20 -21 -36 -37 -52 -92
-65 -150 -34 -43 24 -58 53 -59 123 -1 29 -4 56 -8 60 -3 5 -34 9 -68 10 -70
0 -65 7 -65 -88 1 -142 117 -261 252 -261 97 0 184 55 233 147 22 40 22 50 25
529 l3 487 -71 0 -70 0 0 -465z"/>
<path d="M612 758 l3 -463 27 -51 c80 -151 239 -222 386 -173 49 17 52 17 52
1 0 -15 11 -18 83 -18 45 1 84 4 87 8 11 15 2 395 -10 417 -25 48 -66 61 -190
61 l-115 0 -2 -85 c-1 -47 1 -86 5 -86 4 -1 35 -2 69 -3 34 -1 65 -5 68 -8 7
-6 -14 -50 -37 -79 -19 -23 -73 -49 -103 -49 -40 0 -101 36 -124 73 -21 34
-21 45 -21 476 l0 441 -90 0 -91 0 3 -462z"/>
</g>
</svg>
